<svg width="24" height="24" viewBox="0 0 24 24" fill="none" xmlns="http://www.w3.org/2000/svg">
<path d="M11.5 15V9H12.5V15H11.5Z" fill="black"/>
<path d="M12.5 16.5C12.5 16.7761 12.2761 17 12 17C11.7239 17 11.5 16.7761 11.5 16.5C11.5 16.2239 11.7239 16 12 16C12.2761 16 12.5 16.2239 12.5 16.5Z" fill="black"/>
<path fill-rule="evenodd" clip-rule="evenodd" d="M13.732 4C12.9622 2.66667 11.0377 2.66667 10.2679 4L2.47369 17.5C1.70389 18.8333 2.66614 20.5 4.20574 20.5H19.7942C21.3338 20.5 22.2961 18.8333 21.5263 17.5L13.732 4ZM11.1339 4.5C11.5188 3.83333 12.4811 3.83333 12.866 4.5L20.6602 18C21.0451 18.6667 20.564 19.5 19.7942 19.5H4.20574C3.43594 19.5 2.95482 18.6667 3.33972 18L11.1339 4.5Z" fill="black"/>
</svg>
