<svg width="24" height="24" viewBox="0 0 24 24" fill="none" xmlns="http://www.w3.org/2000/svg">
<path d="M11.4999 15V9H12.4999V15H11.4999Z" fill="#B3B3B3"/>
<path d="M12.4999 16.5C12.4999 16.7761 12.276 17 11.9999 17C11.7237 17 11.4999 16.7761 11.4999 16.5C11.4999 16.2239 11.7237 16 11.9999 16C12.276 16 12.4999 16.2239 12.4999 16.5Z" fill="#B3B3B3"/>
<path d="M13.7319 4C12.9621 2.66667 11.0376 2.66667 10.2678 4L2.47357 17.5C1.70377 18.8333 2.66602 20.5 4.20562 20.5H19.7941C21.3337 20.5 22.2959 18.8333 21.5261 17.5L13.7319 4ZM11.1338 4.5C11.5187 3.83333 12.481 3.83333 12.8659 4.5L20.6601 18C21.045 18.6667 20.5639 19.5 19.7941 19.5H4.20562C3.43582 19.5 2.95469 18.6667 3.33959 18L11.1338 4.5Z" fill="#B3B3B3"/>
</svg>
