<svg width="24" height="24" viewBox="0 0 24 24" fill="none" xmlns="http://www.w3.org/2000/svg">
<path d="M3 6C2.44772 6 2 6.44772 2 7V8H1V7C1 5.89543 1.89543 5 3 5H4V6H3Z" fill="#B3B3B3"/>
<path d="M4 8V16H5V8H4Z" fill="#B3B3B3"/>
<path d="M6 8V16H7V8H6Z" fill="#B3B3B3"/>
<path d="M13 16V8H14V16H13Z" fill="#B3B3B3"/>
<path d="M17 8V16H18V8H17Z" fill="#B3B3B3"/>
<path d="M8 13.6V8H9V13.6H8Z" fill="#B3B3B3"/>
<path d="M11 8V13.6H12V8H11Z" fill="#B3B3B3"/>
<path d="M15 13.6V8H16V13.6H15Z" fill="#B3B3B3"/>
<path d="M19 8V16H20V8H19Z" fill="#B3B3B3"/>
<path d="M2 17C2 17.5523 2.44772 18 3 18H4V19H3C1.89543 19 1 18.1046 1 17V16H2V17Z" fill="#B3B3B3"/>
<path d="M22 7C22 6.44772 21.5523 6 21 6L20 6V5H21C22.1046 5 23 5.89543 23 7V8H22V7Z" fill="#B3B3B3"/>
<path d="M21 18C21.5523 18 22 17.5523 22 17V16H23V17C23 18.1046 22.1046 19 21 19H20V18H21Z" fill="#B3B3B3"/>
</svg>
