<svg width="24" height="24" viewBox="0 0 24 24" fill="none" xmlns="http://www.w3.org/2000/svg">
<path d="M4.81897 18.9862C3.81438 18.9862 3 18.1719 3 17.1673C3 16.5824 3.28123 16.0332 3.75579 15.6914L4.5 15.1553C4.81395 14.9291 5 14.5658 5 14.1789V9.97052C5 7.28697 6.88109 4.97082 9.50759 4.42042C9.82831 4.35321 10.1211 4.19033 10.3474 3.95328L10.7443 3.53738C11.4281 2.82087 12.5719 2.82087 13.2557 3.53738L13.6526 3.95328C13.8789 4.19033 14.1717 4.35321 14.4924 4.42042C17.1189 4.97082 19 7.28696 19 9.97052V14.1789C19 14.5658 19.1861 14.9291 19.5 15.1553L20.2442 15.6914C20.7188 16.0332 21 16.5824 21 17.1673C21 18.1719 20.1856 18.9862 19.181 18.9862H4.81897Z" fill="#B3B3B3"/>
<path d="M12 21.9862C13.1046 21.9862 14 21.0908 14 19.9862H10C10 21.0908 10.8954 21.9862 12 21.9862Z" fill="#B3B3B3"/>
</svg>
