<svg width="24" height="24" viewBox="0 0 24 24" fill="none" xmlns="http://www.w3.org/2000/svg">
<path fill-rule="evenodd" clip-rule="evenodd" d="M5 14.1753C5 14.5622 4.81394 14.9254 4.5 15.1515L3.75573 15.6875C3.28122 16.0292 3 16.5782 3 17.163C3 18.1672 3.81407 18.9813 4.81828 18.9813H19.1817C20.1859 18.9813 21 18.1672 21 17.163C21 16.5782 20.7188 16.0292 20.2443 15.6875L19.5 15.1515C19.1861 14.9254 19 14.5622 19 14.1753V9.96991C19 7.28637 17.1188 4.97028 14.4923 4.42004C14.1716 4.35287 13.8789 4.19006 13.6527 3.9531L13.2556 3.53723C12.5718 2.82092 11.4282 2.82092 10.7444 3.53723L10.3473 3.9531C10.1211 4.19006 9.82835 4.35287 9.5077 4.42004C6.88117 4.97028 5 7.28637 5 9.96991V14.1753ZM20 17.163C20 17.6149 19.6336 17.9813 19.1817 17.9813H4.81828C4.36636 17.9813 4 17.6149 4 17.163C4 16.8998 4.12656 16.6527 4.3401 16.499L5.08437 15.963C5.65928 15.549 6 14.8838 6 14.1753V9.96991C6 7.75963 7.54941 5.85199 9.71274 5.3988C10.2313 5.29016 10.7048 5.02686 11.0706 4.64363L11.4677 4.22777C11.7576 3.92408 12.2424 3.92408 12.5323 4.22777L12.9294 4.64363C13.2952 5.02686 13.7687 5.29016 14.2873 5.3988C16.4506 5.85199 18 7.75963 18 9.96991V14.1753C18 14.8838 18.3407 15.549 18.9156 15.963L19.6599 16.499C19.8734 16.6527 20 16.8998 20 17.163Z" fill="black"/>
<path d="M10.063 20.4813C10.0219 20.3215 10 20.1539 10 19.9813H14C14 20.1539 13.9781 20.3215 13.937 20.4813C13.8358 20.8744 13.6181 21.2207 13.3229 21.4813C12.9703 21.7924 12.5072 21.9813 12 21.9813C11.4928 21.9813 11.0297 21.7924 10.6771 21.4813C10.3819 21.2207 10.1642 20.8744 10.063 20.4813Z" fill="black"/>
</svg>
