<svg width="24" height="24" viewBox="0 0 24 24" fill="none" xmlns="http://www.w3.org/2000/svg">
<path d="M5 14.1753V9.96991C5 7.28637 6.88117 4.97028 9.5077 4.42004C9.82835 4.35287 10.1211 4.19006 10.3473 3.9531L10.7444 3.53723C11.4282 2.82092 12.5718 2.82092 13.2556 3.53723L13.6527 3.9531C13.8789 4.19006 14.1716 4.35287 14.4923 4.42004C17.1188 4.97028 19 7.28637 19 9.96991V14.1753C19 14.5622 19.1861 14.9254 19.5 15.1515L20.2443 15.6875C20.7188 16.0292 21 16.5782 21 17.163C21 18.1672 20.1859 18.9813 19.1817 18.9813H4.81828C3.81407 18.9813 3 18.1672 3 17.163C3 16.5782 3.28122 16.0292 3.75573 15.6875L4.5 15.1515C4.81394 14.9254 5 14.5622 5 14.1753ZM20 17.163C20 16.8998 19.8734 16.6527 19.6599 16.499L18.9156 15.963C18.3407 15.549 18 14.8838 18 14.1753V9.96991C18 7.75963 16.4506 5.85199 14.2873 5.3988C13.7687 5.29016 13.2952 5.02686 12.9294 4.64363L12.5323 4.22777C12.2424 3.92408 11.7576 3.92408 11.4677 4.22777L11.0706 4.64363C10.7048 5.02686 10.2313 5.29016 9.71274 5.3988C7.54941 5.85199 6 7.75963 6 9.96991V14.1753C6 14.8838 5.65928 15.549 5.08437 15.963L4.3401 16.499C4.12656 16.6527 4 16.8998 4 17.163C4 17.6149 4.36636 17.9813 4.81828 17.9813H19.1817C19.6336 17.9813 20 17.6149 20 17.163Z" fill="#B3B3B3"/>
<path d="M10.063 20.4813C10.0219 20.3215 10 20.1539 10 19.9813H14C14 20.1539 13.9781 20.3215 13.937 20.4813C13.8358 20.8744 13.6181 21.2207 13.3229 21.4813C12.9703 21.7924 12.5072 21.9813 12 21.9813C11.4928 21.9813 11.0297 21.7924 10.6771 21.4813C10.3819 21.2207 10.1642 20.8744 10.063 20.4813Z" fill="#B3B3B3"/>
</svg>
