<svg width="24" height="24" viewBox="0 0 24 24" fill="none" xmlns="http://www.w3.org/2000/svg">
<path d="M20.95 17H21C22.1046 17 23 16.1046 23 15V12.8346C23 11.9123 22.3693 11.1096 21.4731 10.8914L20.6222 10.6842L18.5981 7.84027C18.2228 7.31307 17.6157 7 16.9686 7H10.7863C10.1771 7 9.60115 7.27766 9.2217 7.75425L6.88889 10.6842L2.48205 11.8658C1.60784 12.1002 1 12.8925 1 13.7976V15C1 16.1046 1.89543 17 3 17H4.05001C4.28164 18.1411 5.29052 19 6.5 19C7.70948 19 8.71836 18.1411 8.94999 17H16.05C16.2816 18.1411 17.2905 19 18.5 19C19.7095 19 20.7184 18.1411 20.95 17ZM7.46603 11.5648L10.004 8.37712C10.1937 8.13883 10.4817 8 10.7863 8H16.9686C17.2922 8 17.5957 8.15654 17.7833 8.42013L20.0236 11.5677L21.2366 11.863C21.6846 11.9721 22 12.3735 22 12.8346V15C22 15.5523 21.5523 16 21 16H20.95C20.7184 14.8589 19.7095 14 18.5 14C17.2905 14 16.2816 14.8589 16.05 16H8.94999C8.71836 14.8589 7.70948 14 6.5 14C5.29052 14 4.28164 14.8589 4.05001 16H3C2.44772 16 2 15.5523 2 15V13.7976C2 13.345 2.30392 12.9489 2.74102 12.8317L7.46603 11.5648ZM19.9146 17C19.7087 17.5826 19.1531 18 18.5 18C17.8469 18 17.2913 17.5826 17.0854 17C17.0301 16.8436 17 16.6753 17 16.5C17 16.3247 17.0301 16.1564 17.0854 16C17.2913 15.4174 17.8469 15 18.5 15C19.1531 15 19.7087 15.4174 19.9146 16C19.9699 16.1564 20 16.3247 20 16.5C20 16.6753 19.9699 16.8436 19.9146 17ZM5 16.5C5 16.3247 5.03008 16.1564 5.08535 16C5.29127 15.4174 5.84689 15 6.5 15C7.15311 15 7.70873 15.4174 7.91465 16C7.96992 16.1564 8 16.3247 8 16.5C8 16.6753 7.96992 16.8436 7.91465 17C7.70873 17.5826 7.15311 18 6.5 18C5.84689 18 5.29127 17.5826 5.08535 17C5.03008 16.8436 5 16.6753 5 16.5Z" fill="#B3B3B3"/>
</svg>
