<svg width="24" height="24" viewBox="0 0 24 24" fill="none" xmlns="http://www.w3.org/2000/svg">
<path d="M1 13.7976V15C1 16.1046 1.89543 17 3 17H3.5C3.5 17 3.5 16.6704 3.5 16.5C3.5 14.8431 4.84315 13.5 6.5 13.5C8.15685 13.5 9.5 14.8431 9.5 16.5C9.5 16.6704 9.5 17 9.5 17H15.5C15.5 17 15.5 16.6704 15.5 16.5C15.5 14.8431 16.8431 13.5 18.5 13.5C20.1569 13.5 21.5 14.8431 21.5 16.5C21.5 16.6513 21.5 17 21.5 16.9451C22.3792 16.7347 23 15.9437 23 15V12.8346C23 11.9123 22.3693 11.1096 21.4731 10.8914L20.6222 10.6842L18.5981 7.84027C18.2228 7.31307 17.6157 7 16.9686 7H10.7863C10.1771 7 9.60115 7.27766 9.2217 7.75425L6.88889 10.6842L2.48205 11.8658C1.60784 12.1002 1 12.8925 1 13.7976Z" fill="#B3B3B3"/>
<path d="M6.5 14.5C5.39543 14.5 4.5 15.3954 4.5 16.5C4.5 17.6046 5.39543 18.5 6.5 18.5C7.60457 18.5 8.5 17.6046 8.5 16.5C8.5 15.3954 7.60457 14.5 6.5 14.5Z" fill="#B3B3B3"/>
<path d="M16.5 16.5C16.5 15.3954 17.3954 14.5 18.5 14.5C19.6046 14.5 20.5 15.3954 20.5 16.5C20.5 17.6046 19.6046 18.5 18.5 18.5C17.3954 18.5 16.5 17.6046 16.5 16.5Z" fill="#B3B3B3"/>
</svg>
