<svg width="24" height="24" viewBox="0 0 24 24" fill="none" xmlns="http://www.w3.org/2000/svg">
<path d="M12.5 6.54148V5H11.5V6.54148C10.0811 6.77952 9 8.0135 9 9.5C9 11.1569 10.3431 12.5 12 12.5C13.1046 12.5 14 13.3954 14 14.5C14 15.6046 13.1046 16.5 12 16.5C10.8954 16.5 10 15.6046 10 14.5H9C9 15.9865 10.0811 17.2205 11.5 17.4585V19H12.5V17.4585C13.9189 17.2205 15 15.9865 15 14.5C15 12.8431 13.6569 11.5 12 11.5C10.8954 11.5 10 10.6046 10 9.5C10 8.39543 10.8954 7.5 12 7.5C13.1046 7.5 14 8.39543 14 9.5H15C15 8.0135 13.9189 6.77952 12.5 6.54148Z" fill="#B3B3B3"/>
<path d="M12 22C17.5228 22 22 17.5228 22 12C22 6.47715 17.5228 2 12 2C6.47715 2 2 6.47715 2 12C2 17.5228 6.47715 22 12 22ZM12 21C7.02944 21 3 16.9706 3 12C3 7.02944 7.02944 3 12 3C16.9706 3 21 7.02944 21 12C21 16.9706 16.9706 21 12 21Z" fill="#B3B3B3"/>
</svg>
