<svg width="24" height="24" viewBox="0 0 24 24" fill="none" xmlns="http://www.w3.org/2000/svg">
<path d="M12 22C17.5228 22 22 17.5228 22 12C22 6.47715 17.5228 2 12 2C6.47715 2 2 6.47715 2 12C2 17.5228 6.47715 22 12 22ZM12.75 4.75V6.33702C14.1834 6.67571 15.25 7.96307 15.25 9.5V9.75H13.75V9.5C13.75 8.5335 12.9665 7.75 12 7.75C11.0335 7.75 10.25 8.5335 10.25 9.5C10.25 10.4665 11.0335 11.25 12 11.25C13.7949 11.25 15.25 12.7051 15.25 14.5C15.25 16.0369 14.1834 17.3243 12.75 17.663V19.25H11.25V17.663C9.81662 17.3243 8.75 16.0369 8.75 14.5V14.25H10.25V14.5C10.25 15.4665 11.0335 16.25 12 16.25C12.9665 16.25 13.75 15.4665 13.75 14.5C13.75 13.5335 12.9665 12.75 12 12.75C10.2051 12.75 8.75 11.2949 8.75 9.5C8.75 7.96307 9.81662 6.67571 11.25 6.33702V4.75H12.75Z" fill="#B3B3B3"/>
</svg>
