<svg width="24" height="24" viewBox="0 0 24 24" fill="none" xmlns="http://www.w3.org/2000/svg">
<path d="M15.8925 12C15.8925 14.2091 14.1498 16 12 16C9.8502 16 8.10745 14.2091 8.10745 12C8.10745 9.79086 9.8502 8 12 8C14.1498 8 15.8925 9.79086 15.8925 12ZM14.9194 12C14.9194 10.3431 13.6123 9 12 9C10.3877 9 9.08059 10.3431 9.08059 12C9.08059 13.6569 10.3877 15 12 15C13.6123 15 14.9194 13.6569 14.9194 12Z" fill="#B3B3B3"/>
<path d="M12 4C6.55897 4 3.37142 8.6314 1.64988 11.4204C1.43449 11.7693 1.4545 12.2174 1.68895 12.5531C1.79581 12.7061 1.90557 12.8648 2.01849 13.028C3.96168 15.837 6.8415 20 12 20C17.1585 20 20.0383 15.8371 21.9815 13.0281C22.0944 12.8648 22.2042 12.7061 22.311 12.5531C22.5455 12.2174 22.5655 11.7693 22.3501 11.4204C20.6286 8.6314 17.441 4 12 4ZM2.47956 11.9701C2.47463 11.963 2.47333 11.9569 2.47316 11.9536C4.21464 9.13264 7.14411 5 12 5C16.8559 5 19.7854 9.13263 21.5268 11.9536C21.5267 11.9569 21.5254 11.963 21.5204 11.9701C21.4244 12.1075 21.3271 12.2477 21.2283 12.39C19.2378 15.2571 16.6393 19 12 19C7.36072 19 4.76216 15.2571 2.77168 12.39C2.67287 12.2477 2.57555 12.1075 2.47956 11.9701Z" fill="#B3B3B3"/>
</svg>
