<svg width="24" height="24" viewBox="0 0 24 24" fill="none" xmlns="http://www.w3.org/2000/svg">
<path d="M17.4292 18.1364L20.6465 21.3536L21.3536 20.6465L18.2208 17.5137C19.8412 16.1309 21.0613 14.4146 22.0469 13.0281C22.1629 12.8649 22.2757 12.7062 22.3856 12.5531C22.6265 12.2174 22.647 11.7694 22.4257 11.4204C20.6566 8.63143 17.3811 4.00003 11.7899 4.00003C9.66051 4.00003 7.86702 4.67175 6.3647 5.65762L3.35356 2.64648L2.64645 3.35359L5.54206 6.2492C3.54027 7.81778 2.12175 9.89476 1.15402 11.4204C0.932685 11.7694 0.953243 12.2174 1.19417 12.5531C1.30391 12.7061 1.41662 12.8646 1.53258 13.0277C3.52942 15.8367 6.48895 20 11.7899 20C14.0645 20 15.908 19.2335 17.4292 18.1364ZM17.5116 16.8045L15.0397 14.3326C15.5118 13.676 15.7899 12.8705 15.7899 12C15.7899 9.79089 13.999 8.00003 11.7899 8.00003C10.9194 8.00003 10.1139 8.27807 9.45727 8.75019L7.08871 6.38164C8.4176 5.54825 9.97243 5.00003 11.7899 5.00003C16.7798 5.00003 19.7901 9.13266 21.5797 11.9536C21.5795 11.9569 21.5782 11.963 21.5731 11.9701C21.4745 12.1075 21.3745 12.2477 21.2729 12.39C20.2412 13.8363 19.0504 15.5054 17.5116 16.8045ZM14.3589 15.0661L16.713 17.4201C15.3587 18.3661 13.7519 19 11.7899 19C7.02251 19 4.35221 15.2571 2.30679 12.39C2.20525 12.2477 2.10524 12.1075 2.0066 11.9701C2.00154 11.963 2.0002 11.9569 2.00002 11.9536C2.9963 10.3831 4.37093 8.40614 6.25486 6.962L8.72382 9.43095C8.14088 10.1259 7.78986 11.022 7.78986 12C7.78986 14.2092 9.58072 16 11.7899 16C12.7679 16 13.664 15.649 14.3589 15.0661ZM14.3199 13.6128L10.1771 9.46998C10.6428 9.17247 11.1962 9.00003 11.7899 9.00003C13.4467 9.00003 14.7899 10.3432 14.7899 12C14.7899 12.5937 14.6174 13.1471 14.3199 13.6128ZM9.43457 10.1417L13.6482 14.3553C13.1372 14.759 12.4917 15 11.7899 15C10.133 15 8.78986 13.6569 8.78986 12C8.78986 11.2982 9.03084 10.6527 9.43457 10.1417Z" fill="#B3B3B3"/>
</svg>
