<svg width="24" height="24" viewBox="0 0 24 24" fill="none" xmlns="http://www.w3.org/2000/svg">
<path d="M12.0801 5.71111L10.978 4.5786C8.96191 2.5068 5.65975 2.5068 3.64364 4.5786L3.62969 4.59294L3.61518 4.6067C2.57291 5.59537 2 7.01102 2 8.43564C2 9.8641 2.57678 11.2954 3.5473 12.2927L11.9837 20.9622L20.4202 12.2927C21.3907 11.2954 21.9675 9.8641 21.9675 8.43564V8.37859L21.974 8.3219C22.1277 6.97939 21.5912 5.59909 20.545 4.6067L21.2332 3.88119C22.4857 5.06931 23.1602 6.75248 22.9675 8.43564C22.9675 10.1188 22.293 11.802 21.1369 12.9901L12.6582 21.703C12.4655 21.901 12.2728 22 11.9837 22C11.6947 22 11.502 21.901 11.3093 21.703L2.83062 12.9901C1.67444 11.802 1 10.1188 1 8.43564C1 6.75248 1.67444 5.06931 2.92697 3.88119C5.23073 1.5138 8.94465 1.41064 11.3713 3.57172C11.4819 3.67018 11.5897 3.77333 11.6947 3.88119L12.0801 4.27723L12.4655 3.88119C12.5697 3.77414 12.6777 3.67111 12.7894 3.57224C13.9168 2.5738 15.4072 2 16.8975 2C18.5354 2 20.077 2.69307 21.2332 3.88119L20.5165 4.5786C19.5349 3.5699 18.2465 3 16.8975 3C15.5318 3 14.1517 3.58228 13.1822 4.5786L12.0801 5.71111Z" fill="#B3B3B3"/>
</svg>
