<svg width="24" height="24" viewBox="0 0 24 24" fill="none" xmlns="http://www.w3.org/2000/svg">
<path d="M15.5 10.3072C15.5 8.50118 14.037 7 12.2188 7H12C10.067 7 8.5 8.567 8.5 10.5H9.5C9.5 9.11929 10.6193 8 12 8H12.2188C13.4726 8 14.5 9.0413 14.5 10.3072C14.5 11.1489 14.0234 11.9293 13.2764 12.3028C12.1877 12.8471 11.5 13.9599 11.5 15.1771V15.5H12.5V15.1771C12.5 14.3386 12.9737 13.5722 13.7236 13.1972C14.8152 12.6514 15.5 11.5212 15.5 10.3072Z" fill="black"/>
<path d="M12 17.5C12.2761 17.5 12.5 17.2761 12.5 17C12.5 16.7239 12.2761 16.5 12 16.5C11.7239 16.5 11.5 16.7239 11.5 17C11.5 17.2761 11.7239 17.5 12 17.5Z" fill="black"/>
<path fill-rule="evenodd" clip-rule="evenodd" d="M22 12C22 17.5228 17.5228 22 12 22C6.47715 22 2 17.5228 2 12C2 6.47715 6.47715 2 12 2C17.5228 2 22 6.47715 22 12ZM21 12C21 16.9706 16.9706 21 12 21C7.02944 21 3 16.9706 3 12C3 7.02944 7.02944 3 12 3C16.9706 3 21 7.02944 21 12Z" fill="black"/>
</svg>
