<svg width="24" height="24" viewBox="0 0 24 24" fill="none" xmlns="http://www.w3.org/2000/svg">
<path fill-rule="evenodd" clip-rule="evenodd" d="M12 22C17.5228 22 22 17.5228 22 12C22 6.47715 17.5228 2 12 2C6.47715 2 2 6.47715 2 12C2 17.5228 6.47715 22 12 22ZM8.25 10V9.75C8.25 7.67893 9.92893 6 12 6H12.2188C14.1783 6 15.75 7.61629 15.75 9.55723C15.75 10.8642 15.0132 12.0819 13.8354 12.6708C13.1702 13.0034 12.75 13.6833 12.75 14.4271V15H11.25V14.4271C11.25 13.1152 11.9912 11.9159 13.1646 11.3292C13.8255 10.9987 14.25 10.3058 14.25 9.55723C14.25 8.42652 13.3318 7.5 12.2188 7.5H12C10.7574 7.5 9.75 8.50736 9.75 9.75V10H8.25ZM12.75 16.75C12.75 17.1642 12.4142 17.5 12 17.5C11.5858 17.5 11.25 17.1642 11.25 16.75C11.25 16.3358 11.5858 16 12 16C12.4142 16 12.75 16.3358 12.75 16.75Z" fill="black"/>
</svg>
