<svg width="24" height="24" viewBox="0 0 24 24" fill="none" xmlns="http://www.w3.org/2000/svg">
<path fill-rule="evenodd" clip-rule="evenodd" d="M2.90099 8.06599C2.3381 8.44125 2 9.073 2 9.7495C2 10.5159 2.433 11.2165 3.11847 11.5592L3.5 11.75C3.80643 11.9032 4 12.2164 4 12.559V20C4 21.1046 4.89543 22 6 22H18C19.1046 22 20 21.1046 20 20V12.559C20 12.2164 20.1936 11.9032 20.5 11.75L20.8815 11.5592C21.567 11.2165 22 10.5159 22 9.7495C22 9.073 21.6619 8.44125 21.099 8.06599L13.1094 2.73959C12.4376 2.29172 11.5624 2.29172 10.8906 2.73959L2.90099 8.06599ZM9 16V20H15V16C15 14.3431 13.6569 13 12 13C10.3431 13 9 14.3431 9 16Z" fill="black"/>
</svg>
