<svg width="24" height="24" viewBox="0 0 24 24" fill="none" xmlns="http://www.w3.org/2000/svg">
<path fill-rule="evenodd" clip-rule="evenodd" d="M6 22C4.89543 22 4 21.1046 4 20V12.559C4 12.2164 3.80643 11.9032 3.5 11.75L3.11847 11.5592C2.433 11.2165 2 10.5159 2 9.7495C2 9.073 2.3381 8.44125 2.90099 8.066L10.8906 2.73959C11.5624 2.29172 12.4376 2.29172 13.1094 2.73959L21.099 8.06599C21.6619 8.44125 22 9.073 22 9.7495C22 10.5159 21.567 11.2165 20.8815 11.5592L20.5 11.75C20.1936 11.9032 20 12.2164 20 12.559V20C20 21.1046 19.1046 22 18 22H6ZM3 9.7495C3 9.40735 3.171 9.08784 3.45569 8.89805L11.4453 3.57164C11.7812 3.3477 12.2188 3.3477 12.5547 3.57164L20.5443 8.89804C20.829 9.08784 21 9.40735 21 9.7495C21 10.1371 20.781 10.4914 20.4343 10.6648L20.0528 10.8556C19.4076 11.1782 19 11.8376 19 12.559V20C19 20.5523 18.5523 21 18 21H15V16C15 14.3431 13.6569 13 12 13C10.3431 13 9 14.3431 9 16V21H6C5.44771 21 5 20.5523 5 20V12.559C5 11.8376 4.59243 11.1782 3.94721 10.8556L3.56568 10.6648C3.21899 10.4914 3 10.1371 3 9.7495ZM10 21H14V16C14 14.8954 13.1046 14 12 14C10.8954 14 10 14.8954 10 16V21Z" fill="black"/>
</svg>
