<svg width="24" height="24" viewBox="0 0 24 24" fill="none" xmlns="http://www.w3.org/2000/svg">
<path d="M2.90099 8.06612C2.3381 8.44137 2 9.07312 2 9.74962C2 10.516 2.433 11.2166 3.11847 11.5593L3.5 11.7501C3.80643 11.9033 4 12.2165 4 12.5591V20.0001C4 21.1047 4.89543 22.0001 6 22.0001H18C19.1046 22.0001 20 21.1047 20 20.0001V12.5591C20 12.2165 20.1936 11.9033 20.5 11.7501L20.8815 11.5593C21.567 11.2166 22 10.516 22 9.74962C22 9.07312 21.6619 8.44137 21.099 8.06612L13.1094 2.73971C12.4376 2.29184 11.5624 2.29184 10.8906 2.73971L2.90099 8.06612ZM9 16.0001C9 14.3433 10.3431 13.0001 12 13.0001C13.6569 13.0001 15 14.3433 15 16.0001V20.0001H9V16.0001Z" fill="#B3B3B3"/>
</svg>
