<svg width="24" height="24" viewBox="0 0 24 24" fill="none" xmlns="http://www.w3.org/2000/svg">
<path d="M6 22.0001C4.89543 22.0001 4 21.1047 4 20.0001V12.5591C4 12.2165 3.80643 11.9033 3.5 11.7501L3.11847 11.5593C2.433 11.2166 2 10.516 2 9.74963C2 9.07312 2.3381 8.44137 2.90099 8.06612L10.8906 2.73971C11.5624 2.29184 12.4376 2.29184 13.1094 2.73971L21.099 8.06612C21.6619 8.44137 22 9.07312 22 9.74963C22 10.516 21.567 11.2166 20.8815 11.5593L20.5 11.7501C20.1936 11.9033 20 12.2165 20 12.5591V20.0001C20 21.1047 19.1046 22.0001 18 22.0001H6ZM3 9.74963C3 10.1372 3.21899 10.4916 3.56568 10.6649L3.94721 10.8557C4.59243 11.1783 5 11.8378 5 12.5591V20.0001C5 20.5524 5.44771 21.0001 6 21.0001H9V16.0001C9 14.3433 10.3431 13.0001 12 13.0001C13.6569 13.0001 15 14.3433 15 16.0001V21.0001H18C18.5523 21.0001 19 20.5524 19 20.0001V12.5591C19 11.8378 19.4076 11.1783 20.0528 10.8557L20.4343 10.6649C20.781 10.4916 21 10.1372 21 9.74963C21 9.40747 20.829 9.08796 20.5443 8.89817L12.5547 3.57176C12.2188 3.34783 11.7812 3.34783 11.4453 3.57176L3.45569 8.89817C3.171 9.08796 3 9.40747 3 9.74963ZM10 21.0001H14V16.0001C14 14.8955 13.1046 14.0001 12 14.0001C10.8954 14.0001 10 14.8955 10 16.0001V21.0001Z" fill="#B3B3B3"/>
</svg>
