<svg width="24" height="24" viewBox="0 0 24 24" fill="none" xmlns="http://www.w3.org/2000/svg">
<path fill-rule="evenodd" clip-rule="evenodd" d="M18.9142 1.75C18.4501 1.75 18.005 1.93437 17.6768 2.26256L10.7906 9.14879C10.0746 8.89056 9.30306 8.75 8.49999 8.75C4.77207 8.75 1.75 11.7721 1.75 15.5C1.75 19.2279 4.77207 22.25 8.49999 22.25C12.2279 22.25 15.25 19.2279 15.25 15.5C15.25 14.6969 15.1094 13.9254 14.8512 13.2095L18.7374 9.32322C19.0656 8.99503 19.25 8.54991 19.25 8.08579V7.5C19.25 7.36193 19.3619 7.25 19.5 7.25L20.0858 7.25C20.5499 7.25 20.995 7.06563 21.3232 6.73744L21.7374 6.32322C22.0656 5.99503 22.25 5.54991 22.25 5.08579V3.5C22.25 2.5335 21.4665 1.75 20.5 1.75H18.9142ZM7 19C8.10457 19 9 18.1046 9 17C9 15.8954 8.10457 15 7 15C5.89543 15 5 15.8954 5 17C5 18.1046 5.89543 19 7 19Z" fill="black"/>
</svg>
