<svg width="24" height="24" viewBox="0 0 24 24" fill="none" xmlns="http://www.w3.org/2000/svg">
<path d="M9 17C9 18.1046 8.10457 19 7 19C5.89543 19 5 18.1046 5 17C5 15.8954 5.89543 15 7 15C8.10457 15 9 15.8954 9 17ZM8 17C8 16.4477 7.55228 16 7 16C6.44772 16 6 16.4477 6 17C6 17.5523 6.44772 18 7 18C7.55228 18 8 17.5523 8 17Z" fill="#B3B3B3"/>
<path d="M8.49999 8.75C9.30306 8.75 10.0746 8.89056 10.7906 9.14879L17.6768 2.26256C18.005 1.93437 18.4501 1.75 18.9142 1.75H20.5C21.4665 1.75 22.25 2.5335 22.25 3.5V5.08579C22.25 5.54991 22.0656 5.99503 21.7374 6.32322L21.3232 6.73744C20.995 7.06563 20.5499 7.25 20.0858 7.25L19.5 7.25C19.3619 7.25 19.25 7.36193 19.25 7.5V8.08579C19.25 8.54991 19.0656 8.99503 18.7374 9.32322L14.8512 13.2095C15.1094 13.9254 15.25 14.6969 15.25 15.5C15.25 19.2279 12.2279 22.25 8.49999 22.25C4.77207 22.25 1.75 19.2279 1.75 15.5C1.75 11.7721 4.77207 8.75 8.49999 8.75ZM13.6951 12.9514L18.0303 8.61612C18.171 8.47547 18.25 8.2847 18.25 8.08579V7.5C18.25 6.80964 18.8097 6.25 19.5 6.25L20.0858 6.25C20.2847 6.25 20.4755 6.17098 20.6161 6.03033L21.0303 5.61612C21.171 5.47547 21.25 5.2847 21.25 5.08579V3.5C21.25 3.08579 20.9142 2.75 20.5 2.75H18.9142C18.7153 2.75 18.5245 2.82902 18.3839 2.96967L11.0486 10.3049L10.4513 10.0895C9.84254 9.86991 9.18568 9.75 8.49999 9.75C5.32436 9.75 2.75 12.3244 2.75 15.5C2.75 18.6756 5.32436 21.25 8.49999 21.25C11.6756 21.25 14.25 18.6756 14.25 15.5C14.25 14.8143 14.1301 14.1575 13.9105 13.5488L13.6951 12.9514Z" fill="#B3B3B3"/>
</svg>
