<svg width="24" height="24" viewBox="0 0 24 24" fill="none" xmlns="http://www.w3.org/2000/svg">
<path d="M6 9V11H5C3.89543 11 3 11.8954 3 13V20C3 21.1046 3.89543 22 5 22H19C20.1046 22 21 21.1046 21 20V13C21 11.8954 20.1046 11 19 11H18V9C18 5.68629 15.3137 3 12 3C8.68629 3 6 5.68629 6 9ZM17 11H7V9C7 6.23858 9.23858 4 12 4C14.7614 4 17 6.23858 17 9V11ZM11.25 16.7993C10.8016 16.54 10.5 16.0552 10.5 15.5C10.5 14.6716 11.1716 14 12 14C12.8284 14 13.5 14.6716 13.5 15.5C13.5 16.0552 13.1984 16.54 12.75 16.7993V19H11.25V16.7993Z" fill="#B3B3B3"/>
</svg>
