<svg width="24" height="24" viewBox="0 0 24 24" fill="none" xmlns="http://www.w3.org/2000/svg">
<path fill-rule="evenodd" clip-rule="evenodd" d="M8.78292 3.89018L8.76379 3.89948C5.8233 5.32796 4.0372 8.27317 4.0372 11.5C4.0372 12.6586 4.30673 13.9285 4.75897 15.016L4.9037 15.364L3.00849 20.9553L8.66231 19.0314L9.01149 19.1772C10.1014 19.6322 11.2683 19.9 12.5186 19.9C15.7407 19.9 18.6832 18.107 20.1072 15.2535L20.1139 15.2399L20.1211 15.2266C20.7252 14.1025 21 12.7731 21 11.4V10.932C20.7176 6.64287 17.3345 3.1875 12.9966 3H12.5186C11.1604 3 9.93125 3.27064 8.80164 3.88008L8.78292 3.89018ZM13.0176 2C17.908 2.2 21.7006 6.1 22 10.9V11.4C22 12.9 21.7006 14.4 21.002 15.7C19.4051 18.9 16.1115 20.9 12.5186 20.9C11.1213 20.9 9.82388 20.6 8.62623 20.1L3.33661 21.9C3.2368 22 3.137 22 3.0372 22C2.73778 22 2.53817 21.9 2.23876 21.7C2.03915 21.5 1.93935 21.1 2.03915 20.7L3.83563 15.4C3.33661 14.2 3.0372 12.8 3.0372 11.5C3.0372 7.9 5.03328 4.6 8.32682 3C9.62428 2.3 11.0215 2 12.5186 2H13.0176Z" fill="black"/>
</svg>
