<svg width="24" height="24" viewBox="0 0 24 24" fill="none" xmlns="http://www.w3.org/2000/svg">
<path d="M21 19C22.1046 19 23 18.1046 23 17V7L23 6.98706C22.993 5.88844 22.1003 5 21 5H3C1.89543 5 1 5.89543 1 7V17C1 18.1046 1.89543 19 3 19H21ZM19 6H21C21.5523 6 22 6.44771 22 7V9C20.3431 9 19 7.65685 19 6ZM22 10V14C19.7909 14 18 15.7909 18 18H6C6 15.7909 4.20914 14 2 14V10C4.20914 10 6 8.20914 6 6H18C18 8.20914 19.7909 10 22 10ZM21 18H19C19 16.3431 20.3431 15 22 15V17C22 17.5523 21.5523 18 21 18ZM2 15C3.65685 15 5 16.3431 5 18H3C2.44772 18 2 17.5523 2 17V15ZM5 6C5 7.65685 3.65685 9 2 9V7C2 6.44772 2.44772 6 3 6H5Z" fill="#B3B3B3"/>
<path d="M12 14C10.8954 14 10 13.1046 10 12C10 10.8954 10.8954 10 12 10C13.1046 10 14 10.8954 14 12C14 13.1046 13.1046 14 12 14ZM12 15C13.6569 15 15 13.6569 15 12C15 10.3431 13.6569 9 12 9C10.3431 9 9 10.3431 9 12C9 13.6569 10.3431 15 12 15Z" fill="#B3B3B3"/>
</svg>
