<svg width="24" height="24" viewBox="0 0 24 24" fill="none" xmlns="http://www.w3.org/2000/svg">
<path d="M4 2C2.89543 2 2 2.89543 2 4V9C2 10.1046 2.89543 11 4 11H9C10.1046 11 11 10.1046 11 9V4C11 2.89543 10.1046 2 9 2H4ZM3 4C3 3.44772 3.44772 3 4 3H9C9.55228 3 10 3.44772 10 4V9C10 9.55228 9.55228 10 9 10H4C3.44772 10 3 9.55228 3 9V4Z" fill="#B3B3B3"/>
<path d="M15 2C13.8954 2 13 2.89543 13 4V9C13 10.1046 13.8954 11 15 11H20C21.1046 11 22 10.1046 22 9V4C22 2.89543 21.1046 2 20 2H15ZM14 4C14 3.44772 14.4477 3 15 3H20C20.5523 3 21 3.44772 21 4V9C21 9.55228 20.5523 10 20 10H15C14.4477 10 14 9.55228 14 9V4Z" fill="#B3B3B3"/>
<path d="M2 15C2 13.8954 2.89543 13 4 13H9C10.1046 13 11 13.8954 11 15V20C11 21.1046 10.1046 22 9 22H4C2.89543 22 2 21.1046 2 20V15ZM4 14C3.44772 14 3 14.4477 3 15V20C3 20.5523 3.44772 21 4 21H9C9.55228 21 10 20.5523 10 20V15C10 14.4477 9.55228 14 9 14H4Z" fill="#B3B3B3"/>
<path d="M18 13V17H22V18H18V22H17V18H13V17H17V13H18Z" fill="#B3B3B3"/>
</svg>
