<svg width="24" height="24" viewBox="0 0 24 24" fill="none" xmlns="http://www.w3.org/2000/svg">
<path d="M3 12C3 7.58172 6.51284 4 10.8462 4C12.7886 4 14.2631 4.50117 15.7788 5.55203C17.07 6.44729 18.3975 7.74745 20.0769 9.45311V4.47059H21V11.0588H14.5385V10.1176H19.4231C17.7408 8.40967 16.4748 7.17277 15.2597 6.33032C13.8908 5.38118 12.596 4.94118 10.8462 4.94118C7.02264 4.94118 3.92308 8.10152 3.92308 12C3.92308 15.8985 7.02264 19.0588 10.8462 19.0588H11.7692C15.0829 19.0588 17.7692 16.3199 17.7692 12.9412H18.6923C18.6923 16.8397 15.5927 20 11.7692 20H10.8462C6.51284 20 3 16.4183 3 12Z" fill="#B3B3B3"/>
</svg>
