<svg width="24" height="24" viewBox="0 0 24 24" fill="none" xmlns="http://www.w3.org/2000/svg">
<path fill-rule="evenodd" clip-rule="evenodd" d="M11.0698 4.38462C12.5327 4.38462 13.8981 4.79015 15.0604 5.49375L15.0803 5.50578L15.1009 5.51648C15.623 5.78688 16.6315 6.58641 17.7566 7.60089C18.4201 8.19918 19.0978 8.84808 19.7012 9.46154H14.7907V10.8462H22V3.69231H20.6047V8.39803C20.0027 7.79 19.3404 7.15813 18.695 6.57616C17.5971 5.5862 16.4747 4.67289 15.768 4.30021C14.3972 3.47498 12.7883 3 11.0698 3C6.06067 3 2 7.02944 2 12C2 16.9706 6.06067 21 11.0698 21C15.387 21 18.9982 18.0074 19.9148 13.9994L18.554 13.693C17.7785 17.0842 14.7212 19.6154 11.0698 19.6154C6.8313 19.6154 3.39535 16.2059 3.39535 12C3.39535 7.79414 6.8313 4.38462 11.0698 4.38462Z" fill="black"/>
</svg>
