<svg width="24" height="24" viewBox="0 0 24 24" fill="none" xmlns="http://www.w3.org/2000/svg">
<path d="M13.9496 2C14.4328 2 14.8363 2.35853 14.88 2.82679L15.0704 4.86517C15.1007 5.18924 15.309 5.46892 15.6019 5.62598C15.6925 5.6746 15.7821 5.72499 15.8704 5.77712C16.1567 5.94611 16.5102 5.98206 16.8142 5.84536L18.7241 4.9864C19.1627 4.78914 19.6836 4.94988 19.9252 5.35707L21.8747 8.6429C22.1163 9.05009 21.999 9.56936 21.6041 9.84035L19.8836 11.0211C19.6105 11.2085 19.4656 11.5236 19.4724 11.8487C19.4735 11.899 19.474 11.9495 19.474 12C19.474 12.0505 19.4735 12.101 19.4724 12.1513C19.4656 12.4764 19.6105 12.7915 19.8836 12.9789L21.6041 14.1596C21.999 14.4306 22.1163 14.9499 21.8747 15.3571L19.9252 18.6429C19.6836 19.0501 19.1627 19.2109 18.7241 19.0136L16.8142 18.1546C16.5102 18.0179 16.1567 18.0539 15.8704 18.2229C15.7821 18.275 15.6925 18.3254 15.6019 18.374C15.309 18.5311 15.1007 18.8108 15.0704 19.1348L14.88 21.1732C14.8363 21.6415 14.4328 22 13.9496 22H10.0504C9.56722 22 9.16375 21.6415 9.12 21.1732L8.92956 19.1348C8.89929 18.8108 8.691 18.5311 8.39811 18.374C8.30745 18.3254 8.21793 18.275 8.12961 18.2229C7.84328 18.0539 7.48972 18.0179 7.18575 18.1546L5.27589 19.0136C4.83727 19.2108 4.31645 19.0501 4.07485 18.6429L2.12526 15.3571C1.88366 14.9499 2.00102 14.4306 2.39589 14.1596L4.11642 12.9788C4.38952 12.7914 4.53438 12.4764 4.52756 12.1512C4.52651 12.1009 4.52598 12.0505 4.52598 12C4.52598 11.9495 4.52651 11.8991 4.52756 11.8488C4.53438 11.5236 4.38951 11.2086 4.11642 11.0212L2.39588 9.84038C2.00101 9.56939 1.88366 9.05012 2.12526 8.64292L4.07484 5.3571C4.31644 4.94991 4.83726 4.78917 5.27588 4.98643L7.18574 5.84535C7.48972 5.98206 7.84328 5.94609 8.1296 5.77711C8.21792 5.72498 8.30744 5.67459 8.39811 5.62597C8.691 5.46892 8.89929 5.18924 8.92956 4.86517L9.12 2.82679C9.16375 2.35853 9.56722 2 10.0504 2H13.9496ZM12 16C14.2091 16 16 14.2091 16 12C16 9.79086 14.2091 8 12 8C9.79086 8 8 9.79086 8 12C8 14.2091 9.79086 16 12 16Z" fill="#B3B3B3"/>
</svg>
