<svg width="24" height="24" viewBox="0 0 24 24" fill="none" xmlns="http://www.w3.org/2000/svg">
<path d="M10.1082 3L9.92523 4.95819C9.85937 5.6631 9.41489 6.21545 8.87067 6.50726C8.79205 6.54942 8.71444 6.59312 8.63787 6.63831C8.10476 6.95294 7.40903 7.04224 6.77558 6.75735L4.90574 5.91644L3.03636 9.06708L4.68226 10.1967C5.25935 10.5927 5.54054 11.2406 5.52734 11.8697C5.52644 11.913 5.52598 11.9565 5.52598 12C5.52598 12.0435 5.52644 12.087 5.52734 12.1303C5.54054 12.7594 5.25935 13.4073 4.68227 13.8033L3.03637 14.9329L4.90575 18.0836L6.77559 17.2426C7.40904 16.9578 8.10477 17.0471 8.63788 17.3617C8.71445 17.4069 8.79206 17.4506 8.87067 17.4927C9.41489 17.7845 9.85937 18.3369 9.92523 19.0418L10.1082 21H13.8918L14.0748 19.0418C14.1406 18.3369 14.5851 17.7846 15.1293 17.4927C15.2079 17.4506 15.2855 17.4069 15.3621 17.3617C15.8952 17.047 16.591 16.9578 17.2244 17.2426L19.0943 18.0836L20.9636 14.933L19.3177 13.8034C18.7407 13.4073 18.4595 12.7594 18.4727 12.1303C18.4736 12.087 18.474 12.0436 18.474 12C18.474 11.9565 18.4736 11.913 18.4727 11.8697C18.4595 11.2406 18.7407 10.5927 19.3177 10.1966L20.9636 9.06705L19.0943 5.91641L17.2244 6.75739C16.591 7.04226 15.8952 6.95296 15.3621 6.63831C15.2855 6.59311 15.2079 6.54942 15.1293 6.50726C14.5851 6.21545 14.1406 5.66309 14.0748 4.95819L13.8918 3H10.1082ZM13.9496 2C14.4328 2 14.8363 2.35853 14.88 2.82678L15.0704 4.86517C15.1007 5.18924 15.309 5.46892 15.6019 5.62598C15.6925 5.6746 15.7821 5.725 15.8704 5.77713C16.1567 5.94611 16.5102 5.98207 16.8142 5.84537L18.7241 4.98642C19.1627 4.78916 19.6836 4.9499 19.9252 5.35709L21.8747 8.64288C22.1163 9.05008 21.999 9.56937 21.6041 9.84036L19.8836 11.0211C19.6105 11.2085 19.4656 11.5236 19.4724 11.8487C19.4735 11.899 19.474 11.9495 19.474 12C19.474 12.0505 19.4735 12.101 19.4724 12.1513C19.4656 12.4764 19.6105 12.7915 19.8836 12.9789L21.6041 14.1596C21.999 14.4306 22.1163 14.9499 21.8747 15.3571L19.9252 18.6429C19.6836 19.0501 19.1627 19.2108 18.7241 19.0136L16.8142 18.1546C16.5102 18.0179 16.1567 18.0539 15.8704 18.2229C15.7821 18.275 15.6925 18.3254 15.6019 18.374C15.309 18.5311 15.1007 18.8108 15.0704 19.1348L14.88 21.1732C14.8363 21.6415 14.4328 22 13.9496 22H10.0504C9.56722 22 9.16375 21.6415 9.12 21.1732L8.92956 19.1348C8.89929 18.8108 8.691 18.5311 8.39811 18.374C8.30745 18.3254 8.21793 18.275 8.12961 18.2229C7.84328 18.0539 7.48972 18.018 7.18575 18.1547L5.27589 19.0136C4.83727 19.2108 4.31645 19.0501 4.07485 18.6429L2.12526 15.3571C1.88366 14.9499 2.00102 14.4306 2.39589 14.1596L4.11642 12.9789C4.38952 12.7914 4.53438 12.4764 4.52756 12.1512C4.52651 12.101 4.52598 12.0505 4.52598 12C4.52598 11.9495 4.52651 11.899 4.52756 11.8488C4.53438 11.5236 4.38951 11.2086 4.11642 11.0211L2.39588 9.84039C2.00101 9.5694 1.88366 9.05011 2.12526 8.64291L4.07484 5.35709C4.31644 4.9499 4.83726 4.78916 5.27588 4.98642L7.18574 5.84534C7.48972 5.98204 7.84328 5.94608 8.1296 5.7771C8.21792 5.72497 8.30744 5.67459 8.39811 5.62598C8.691 5.46893 8.89929 5.18924 8.92956 4.86517L9.12 2.82678C9.16375 2.35853 9.56722 2 10.0504 2H13.9496Z" fill="#B3B3B3"/>
<path d="M12 15C10.3431 15 9 13.6569 9 12C9 10.3431 10.3431 9 12 9C13.6569 9 15 10.3431 15 12C15 13.6569 13.6569 15 12 15ZM12 16C14.2091 16 16 14.2091 16 12C16 9.79086 14.2091 8 12 8C9.79086 8 8 9.79086 8 12C8 14.2091 9.79086 16 12 16Z" fill="#B3B3B3"/>
</svg>
