<svg width="24" height="24" viewBox="0 0 24 24" fill="none" xmlns="http://www.w3.org/2000/svg">
<path d="M21 5C21 6.65685 19.6569 8 18 8C17.0746 8 16.2471 7.58103 15.6968 6.92242L8.80775 10.941C8.93201 11.2703 9 11.6272 9 12C9 12.3728 8.932 12.7297 8.80773 13.059L15.6968 17.0776C16.2471 16.419 17.0746 16 18 16C19.6569 16 21 17.3431 21 19C21 20.6569 19.6569 22 18 22C16.3431 22 15 20.6569 15 19C15 18.6272 15.068 18.2703 15.1922 17.941L8.3032 13.9224C7.75289 14.581 6.92537 15 6 15C4.34315 15 3 13.6569 3 12C3 10.3431 4.34315 9 6 9C6.9254 9 7.75293 9.419 8.30324 10.0776L15.1923 6.05903C15.068 5.72972 15 5.3728 15 5C15 3.34315 16.3431 2 18 2C19.6569 2 21 3.34315 21 5ZM20 5C20 3.89543 19.1046 3 18 3C16.8954 3 16 3.89543 16 5C16 6.10457 16.8954 7 18 7C19.1046 7 20 6.10457 20 5ZM8 12C8 10.8954 7.10457 10 6 10C4.89543 10 4 10.8954 4 12C4 13.1046 4.89543 14 6 14C7.10457 14 8 13.1046 8 12ZM18 21C19.1046 21 20 20.1046 20 19C20 17.8954 19.1046 17 18 17C16.8954 17 16 17.8954 16 19C16 20.1046 16.8954 21 18 21Z" fill="#B3B3B3"/>
</svg>
