<svg width="24" height="24" viewBox="0 0 24 24" fill="none" xmlns="http://www.w3.org/2000/svg">
<path d="M17.3535 8.85356L10.5 15.7071L7.14642 12.3536L7.85353 11.6465L10.5 14.2929L16.6464 8.14645L17.3535 8.85356Z" fill="#B3B3B3"/>
<path d="M3 6.28339V15.8443C3 16.6157 3.37502 17.3423 4.01265 17.8062L10.4715 22.5061C11.3766 23.1646 12.6234 23.1646 13.5285 22.5061L19.9873 17.8062C20.625 17.3423 21 16.6157 21 15.8443V6.28339C21 5.16342 20.2159 4.18531 19.0938 3.90546L16.5006 3.25872C16.2199 3.18872 15.9537 3.0728 15.7134 2.916L13.4222 1.42063C12.5629 0.85979 11.4371 0.859791 10.5778 1.42063L8.28656 2.916C8.04631 3.0728 7.78007 3.18872 7.49936 3.25872L4.90619 3.90546C3.78406 4.18531 3 5.16342 3 6.28339ZM20 6.28339V15.8443C20 16.2875 19.7848 16.7169 19.399 16.9977L12.9401 21.6975C12.3858 22.1008 11.6142 22.1008 11.0599 21.6975L4.60103 16.9977C4.21518 16.7169 4 16.2875 4 15.8443V6.28339C4 5.64353 4.45074 5.04968 5.14818 4.87574L7.74135 4.229C8.12935 4.13224 8.49866 3.97171 8.83311 3.75343L11.1244 2.25806C11.6516 1.91398 12.3484 1.91398 12.8756 2.25806L15.1669 3.75343C15.5013 3.97171 15.8707 4.13224 16.2587 4.229L18.8518 4.87574C19.5493 5.04968 20 5.64353 20 6.28339Z" fill="#B3B3B3"/>
</svg>
