<svg width="24" height="24" viewBox="0 0 24 24" fill="none" xmlns="http://www.w3.org/2000/svg">
<path fill-rule="evenodd" clip-rule="evenodd" d="M4.90619 3.90546C3.78406 4.18531 3 5.16342 3 6.28339V15.8443C3 16.6157 3.37502 17.3423 4.01265 17.8062L10.4715 22.5061C11.3766 23.1646 12.6234 23.1646 13.5285 22.5061L19.9873 17.8062C20.625 17.3423 21 16.6157 21 15.8443V6.28339C21 5.16342 20.2159 4.18531 19.0938 3.90546L16.5006 3.25872C16.2199 3.18872 15.9537 3.0728 15.7134 2.916L13.4222 1.42063C12.5629 0.85979 11.4371 0.859791 10.5778 1.42063L8.28656 2.916C8.04631 3.0728 7.78007 3.18872 7.49936 3.25872L4.90619 3.90546ZM10.5 16.0607L17.5303 9.03033L16.4697 7.96967L10.5 13.9393L8.03033 11.4697L6.96967 12.5303L10.5 16.0607Z" fill="black"/>
</svg>
