<svg width="24" height="24" viewBox="0 0 24 24" fill="none" xmlns="http://www.w3.org/2000/svg">
<path d="M5 9C3.34315 9 2 7.65685 2 6C2 4.34315 3.34315 3 5 3C6.4865 3 7.72048 4.08114 7.95852 5.5H22V6.5H7.95852C7.72048 7.91886 6.4865 9 5 9ZM5 8C6.10457 8 7 7.10457 7 6C7 4.89543 6.10457 4 5 4C3.89543 4 3 4.89543 3 6C3 7.10457 3.89543 8 5 8Z" fill="#B3B3B3"/>
<path d="M2 17.5L16.0415 17.5C16.2795 16.0811 17.5135 15 19 15C20.6569 15 22 16.3431 22 18C22 19.6569 20.6569 21 19 21C17.5135 21 16.2795 19.9189 16.0415 18.5L2 18.5V17.5ZM17 18C17 19.1046 17.8954 20 19 20C20.1046 20 21 19.1046 21 18C21 16.8954 20.1046 16 19 16C17.8954 16 17 16.8954 17 18Z" fill="#B3B3B3"/>
<path d="M9.04148 11.5L2 11.5V12.5L9.04148 12.5C9.27952 13.9189 10.5135 15 12 15C13.4865 15 14.7205 13.9189 14.9585 12.5L22 12.5V11.5L14.9585 11.5C14.7205 10.0811 13.4865 9 12 9C10.5135 9 9.27952 10.0811 9.04148 11.5ZM12 14C10.8954 14 10 13.1046 10 12C10 10.8954 10.8954 10 12 10C13.1046 10 14 10.8954 14 12C14 13.1046 13.1046 14 12 14Z" fill="#B3B3B3"/>
</svg>
