<svg width="24" height="24" viewBox="0 0 24 24" fill="none" xmlns="http://www.w3.org/2000/svg">
<path d="M2 6C2 7.65685 3.34315 9 5 9C6.39788 9 7.57245 8.04392 7.90549 6.75H22V5.25H7.90549C7.57245 3.95608 6.39788 3 5 3C3.34315 3 2 4.34315 2 6Z" fill="#B3B3B3"/>
<path d="M2 17.25L16.0945 17.25C16.4275 15.9561 17.6021 15 19 15C20.6569 15 22 16.3431 22 18C22 19.6569 20.6569 21 19 21C17.6021 21 16.4275 20.0439 16.0945 18.75L2 18.75V17.25Z" fill="#B3B3B3"/>
<path d="M9.09451 11.25L2 11.25L2 12.75L9.09451 12.75C9.42755 14.0439 10.6021 15 12 15C13.3979 15 14.5724 14.0439 14.9055 12.75L22 12.75V11.25L14.9055 11.25C14.5725 9.95609 13.3979 9 12 9C10.6021 9 9.42754 9.95608 9.09451 11.25Z" fill="#B3B3B3"/>
</svg>
