<svg width="24" height="24" viewBox="0 0 24 24" fill="none" xmlns="http://www.w3.org/2000/svg">
<path fill-rule="evenodd" clip-rule="evenodd" d="M21.8493 9.20298L15.36 8.97845L12.0164 2.00068C12.0112 2.00025 12.0058 2 12 2C11.9942 2 11.9888 2.00025 11.9836 2.00068L8.64019 8.9781L2.05386 9.20973L7.08099 13.6179L5.80743 20.9773C5.83749 20.9936 5.85808 20.9986 5.8657 20.9997C5.86613 20.9995 5.86661 20.9993 5.86714 20.9991L12 17.7655L17.9281 20.8912H18.1296C18.144 20.8856 18.1638 20.8775 18.1902 20.8653L17.1125 13.6278L21.8493 9.20298ZM18.7769 21.6915C18.5776 21.7913 18.3783 21.8912 18.1789 21.8912H17.6806L12 18.896L6.31937 21.8912C5.92072 22.0908 5.52208 21.991 5.2231 21.7913C4.92412 21.5916 4.7248 21.1923 4.82446 20.7929L6 14L1.33635 9.91057C1.03737 9.71089 0.937712 9.31154 1.03737 8.91218C1.23669 8.51283 1.53567 8.21332 1.93431 8.21332L8 8L11.1031 1.52415C11.402 0.825283 12.598 0.825283 12.8969 1.52415L16 8L22.1653 8.21332C22.564 8.31315 22.863 8.51283 22.9626 8.91218C23.0623 9.2117 22.9626 9.61105 22.6636 9.81073L18.1789 14L19.1755 20.6931C19.2752 21.0925 19.0759 21.4918 18.7769 21.6915ZM18.1089 20.8985C18.1089 20.8985 18.1094 20.8984 18.1104 20.8981Z" fill="black"/>
</svg>
