<svg width="24" height="24" viewBox="0 0 24 24" fill="none" xmlns="http://www.w3.org/2000/svg">
<path d="M17 7C17 9.76142 14.7614 12 12 12C9.23858 12 7 9.76142 7 7C7 4.23858 9.23858 2 12 2C14.7614 2 17 4.23858 17 7ZM16 7C16 4.79086 14.2091 3 12 3C9.79086 3 8 4.79086 8 7C8 9.20914 9.79086 11 12 11C14.2091 11 16 9.20914 16 7Z" fill="#B3B3B3"/>
<path d="M8.54545 14C4.9305 14 2 16.9305 2 20.5455C2 21.3488 2.65122 22 3.45455 22H20.5455C21.3488 22 22 21.3488 22 20.5455C22 16.9305 19.0695 14 15.4545 14H8.54545ZM3 20.5455C3 17.4828 5.48278 15 8.54545 15H15.4545C18.5172 15 21 17.4828 21 20.5455C21 20.7965 20.7965 21 20.5455 21H3.45455C3.20351 21 3 20.7965 3 20.5455Z" fill="#B3B3B3"/>
</svg>
